<?xml version="1.0" encoding="utf-8"?>
<!-- Uploaded to: SVG Repo, www.svgrepo.com, Generator: SVG Repo Mixer Tools -->
<svg width="800px" height="800px" viewBox="0 0 1024 1024" class="icon"  version="1.1" xmlns="http://www.w3.org/2000/svg"><path d="M262.7 231.6c-13.8 0-20.7-9.8-25.7-17-5.1-7.3-7.7-10.2-12.7-10.2s-7.5 3-12.7 10.2c-5.1 7.2-12 17-25.7 17-13.8 0-20.7-9.8-25.7-17-5.1-7.3-7.7-10.2-12.7-10.2s-7.5 3-12.7 10.2c-5.1 7.2-12 17-25.7 17-13.8 0-20.7-9.8-25.7-17-5.1-7.3-7.7-10.2-12.7-10.2-4.4 0-8-3.6-8-8s3.6-8 8-8c13.8 0 20.7 9.8 25.7 17 5.1 7.3 7.7 10.2 12.7 10.2s7.5-3 12.7-10.2c5.1-7.2 12-17 25.7-17 13.8 0 20.7 9.8 25.7 17 5.1 7.3 7.7 10.2 12.7 10.2s7.5-3 12.7-10.2c5.1-7.2 12-17 25.7-17 13.8 0 20.7 9.8 25.7 17 5.1 7.3 7.7 10.2 12.7 10.2 4.4 0 8 3.6 8 8s-3.5 8-8 8z" fill="#9A2D2F" /><path d="M262.6 272.7c-13.8 0-20.7-9.8-25.7-17-5.1-7.3-7.7-10.2-12.7-10.2s-7.5 3-12.7 10.2c-5.1 7.2-12 17-25.7 17-13.8 0-20.7-9.8-25.7-17-5.1-7.3-7.7-10.2-12.7-10.2s-7.5 3-12.7 10.2c-5.1 7.2-12 17-25.7 17-13.8 0-20.7-9.8-25.7-17-5.1-7.3-7.7-10.2-12.7-10.2-4.4 0-8-3.6-8-8s3.6-8 8-8c13.8 0 20.7 9.8 25.7 17 5.1 7.3 7.7 10.2 12.7 10.2s7.5-3 12.7-10.2c5.1-7.2 12-17 25.7-17 13.8 0 20.7 9.8 25.7 17 5.1 7.3 7.7 10.2 12.7 10.2s7.5-3 12.7-10.2c5.1-7.2 12-17 25.7-17 13.8 0 20.7 9.8 25.7 17 5.1 7.3 7.7 10.2 12.7 10.2 4.4 0 8 3.6 8 8s-3.6 8-8 8zM949.4 438.4c-13.8 0-20.7-9.8-25.7-17-5.1-7.3-7.7-10.2-12.7-10.2s-7.5 3-12.7 10.2c-5.1 7.2-12 17-25.7 17-13.8 0-20.7-9.8-25.7-17-5.1-7.3-7.7-10.2-12.7-10.2s-7.5 3-12.7 10.2c-5.1 7.2-12 17-25.7 17-13.8 0-20.7-9.8-25.7-17-5.1-7.3-7.7-10.2-12.7-10.2-4.4 0-8-3.6-8-8s3.6-8 8-8c13.8 0 20.7 9.8 25.7 17 5.1 7.3 7.7 10.2 12.7 10.2s7.5-3 12.7-10.2c5.1-7.2 12-17 25.7-17 13.8 0 20.7 9.8 25.7 17 5.1 7.3 7.7 10.2 12.7 10.2s7.5-3 12.7-10.2c5.1-7.2 12-17 25.7-17 13.8 0 20.7 9.8 25.7 17 5.1 7.3 7.7 10.2 12.7 10.2 4.4 0 8 3.6 8 8s-3.6 8-8 8z" fill="#9A2D2F" /><path d="M949.2 479.5c-13.8 0-20.7-9.8-25.7-17-5.1-7.3-7.7-10.2-12.7-10.2s-7.5 3-12.7 10.2c-5.1 7.2-12 17-25.7 17-13.8 0-20.7-9.8-25.7-17-5.1-7.3-7.7-10.2-12.7-10.2s-7.5 3-12.7 10.2c-5.1 7.2-12 17-25.7 17-13.8 0-20.7-9.8-25.7-17-5.1-7.3-7.7-10.2-12.7-10.2-4.4 0-8-3.6-8-8s3.6-8 8-8c13.8 0 20.7 9.8 25.7 17 5.1 7.3 7.7 10.2 12.7 10.2s7.5-3 12.7-10.2c5.1-7.2 12-17 25.7-17 13.8 0 20.7 9.8 25.7 17 5.1 7.3 7.7 10.2 12.7 10.2s7.5-3 12.7-10.2c5.1-7.2 12-17 25.7-17 13.8 0 20.7 9.8 25.7 17 5.1 7.3 7.7 10.2 12.7 10.2 4.4 0 8 3.6 8 8s-3.5 8-8 8z" fill="#9A2D2F" /><path d="M350.8 104m-32 0a32 32 0 1 0 64 0 32 32 0 1 0-64 0Z" fill="#FFEB4D" /><path d="M350.8 144c-22.1 0-40-17.9-40-40s17.9-40 40-40 40 17.9 40 40-17.9 40-40 40z m0-64c-13.2 0-24 10.8-24 24s10.8 24 24 24 24-10.8 24-24-10.8-24-24-24zM923.6 928.1h-824c-4.4 0-8-3.6-8-8s3.6-8 8-8h824c4.4 0 8 3.6 8 8s-3.6 8-8 8z" fill="#9A2D2F" /><path d="M72.6 889.1h832c26.5 0 48-21.5 48-48 0-27.8-2.8-54.8-8.2-81h-871.8v129z" fill="#FFFFFF" /><path d="M904.6 897.1h-832c-4.4 0-8-3.6-8-8v-129c0-4.4 3.6-8 8-8h871.8c3.8 0 7.1 2.7 7.8 6.4 5.6 27 8.4 54.8 8.4 82.6 0 30.8-25.1 56-56 56z m-824-16h824c22.1 0 40-17.9 40-40 0-24.5-2.3-49.1-6.8-73h-857.2v113z" fill="#9A2D2F" /><path d="M552.6 441.1h-480v287h863.8c-48.7-165.9-202.1-287-383.8-287z" fill="#FFF5DC" /><path d="M72.6 728.1v32h872c-2.2-10.8-4.9-21.5-8-32h-864z" fill="#FFACC2" /><path d="M642.6 677.1h-204c-8.8 0-16-7.2-16-16v-144c0-8.8 7.2-16 16-16h60c88.4 0 160 71.6 160 160 0 8.8-7.1 16-16 16z" fill="#DAE5FF" /><path d="M642.6 685.1h-204c-13.2 0-24-10.8-24-24v-144c0-13.2 10.8-24 24-24h60c92.6 0 168 75.4 168 168 0 13.2-10.8 24-24 24z m-204-176c-4.4 0-8 3.6-8 8v144c0 4.4 3.6 8 8 8h204c4.4 0 8-3.6 8-8 0-83.8-68.2-152-152-152h-60z" fill="#9A2D2F" /><path d="M342.6 677.1h-204c-8.8 0-16-7.2-16-16v-144c0-8.8 7.2-16 16-16h204c8.8 0 16 7.2 16 16v144c0 8.8-7.1 16-16 16z" fill="#DAE5FF" /><path d="M342.6 685.1h-204c-13.2 0-24-10.8-24-24v-144c0-13.2 10.8-24 24-24h204c13.2 0 24 10.8 24 24v144c0 13.2-10.8 24-24 24z m-204-176c-4.4 0-8 3.6-8 8v144c0 4.4 3.6 8 8 8h204c4.4 0 8-3.6 8-8v-144c0-4.4-3.6-8-8-8h-204z" fill="#9A2D2F" /><path d="M72.6 888.7h832c26.5 0 48-21.5 48-48v-1.3h-880v49.3z" fill="#CAE8FF" /><path d="M921.2 685.5c-45.7-108.1-137.4-191.9-250.6-226.8 14.3 126.5 120.8 225 250.6 226.8z" fill="#DAE5FF" /><path d="M72.6 768.1h872c2.4 0 4.7-1.1 6.2-2.9 1.5-1.9 2.1-4.3 1.6-6.7-2.2-10.9-5-21.9-8.1-32.6-0.2-0.6-0.4-1.1-0.7-1.6-12.3-41.2-31-80.1-55.6-115.5-24.6-35.4-54.5-66.6-88.8-92.7-34.7-26.4-73.2-46.9-114.2-61-3.9-1.3-7.8-2.6-11.8-3.8-0.1 0-0.2-0.1-0.3-0.1-38.8-12-79.2-18-120.3-18h-480c-4.4 0-8 3.6-8 8v319c0 4.3 3.6 7.9 8 7.9z m8-16v-16h850c1.5 5.3 2.8 10.6 4.1 16h-854.1z m735.3-201.5c38.9 35.3 70.9 78.8 92.9 126.4-114.6-7.4-209.7-93.5-228.5-206.7 49.7 17.2 96.4 44.8 135.6 80.3z m-735.3-101.5h472c38 0 75.1 5.3 110.6 15.7 8.2 61.4 37.9 118 83.9 160 46.4 42.2 106.1 66.5 168.6 68.6 3.6 8.8 6.8 17.7 9.7 26.7h-845v-271h0.2zM960.6 839.4c0-4.4-3.6-8-8-8h-880c-4.4 0-8 3.6-8 8v49.3c0 4.4 3.6 8 8 8h832c30.9 0 56-25.1 56-56v-1.3z m-56 41.3h-824v-33.3H944c-3.1 18.9-19.6 33.3-39.4 33.3z" fill="#9A2D2F" /><path d="M552.6 449.1h-472v12c43 4.5 95 13 135.5 10.5 99-6 134.5-12 184.9-8.1 48.6 3.7 84.6 4.6 149.1-0.9s113.5 5.2 113.1 2.2c-35.5-10.4-72.6-15.7-110.6-15.7z" fill="#FFFFFF" /></svg>